Coordinates
nRows=5
nColumns=24

# SIMM Motion File Header:
name Coordinates
datacolumns 24
datarows 5
otherdata 1
range 1.62500000000000000000 1.62900000000000000000

Units are S.I. units (second, meters, Newtons, ...)
Angles are in degrees.

endheader
time	pelvis_tx	pelvis_ty	pelvis_tz	pelvis_tilt	pelvis_list	pelvis_rotation	hip_flexion_r	hip_adduction_r	hip_rotation_r	knee_angle_r	ankle_angle_r	subtalar_angle_r	mtp_angle_r	hip_flexion_l	hip_adduction_l	hip_rotation_l	knee_angle_l	ankle_angle_l	subtalar_angle_l	mtp_angle_l	lumbar_extension	lumbar_bending	lumbar_rotation
      1.62500000000000000000	      0.61288506630022377000	      1.05083604830751990000	      0.00125502639771452780	      6.06163945149391470000	     -1.65334052296451170000	      0.33484725409992655000	     18.98023991359020400000	     -3.69142248853608470000	     -7.77313334671539110000	    -57.76700487465722500000	      2.44005955933528500000	     -0.01073418024327783700	      0.01222675913990887500	     -5.20568132481353810000	      1.67215696623411890000	      0.86369396740094873000	     -8.43746847661745390000	      5.83351745219877670000	      0.11353626889153562000	      0.02294160901533941900	    -15.83333434958273700000	     -0.41478566245281412000	     -6.58137819304291580000
      1.62600000000000010000	      0.61276813466723556000	      1.05080141599516620000	      0.00119531722088706250	      6.05139783979318670000	     -1.65151330540182380000	      0.34297260471748608000	     19.05087025142842400000	     -3.69278812139563730000	     -7.81185427299456150000	    -57.52663009544618000000	      2.43470026342640860000	     -0.01068898125069604200	      0.01218639817227379700	     -5.28302398949169840000	      1.67573272184912360000	      0.87145290856841495000	     -8.38550878124012480000	      5.85846662607774870000	      0.11412960368155033000	      0.02225621077848575000	    -15.83192799852757400000	     -0.40808980181759374000	     -6.58758428444902750000
      1.62700000000000000000	      0.61265123052600001000	      1.05076489238579930000	      0.00113640409079013010	      6.04105617552533050000	     -1.64940373174645800000	      0.35066187277503774000	     19.12055643183831300000	     -3.69446615153647870000	     -7.85103111647926430000	    -57.28374782257153400000	      2.42929211006484900000	     -0.01064394647413875600	      0.01214557529704632900	     -5.36020938207511040000	      1.67958253035324280000	      0.87875217288493035000	     -8.33367160041834330000	      5.88341507324397380000	      0.11471203993852024000	      0.02157527908990965500	    -15.83043967650818800000	     -0.40175446180392443000	     -6.59336279486323560000
      1.62800000000000010000	      0.61253437475623895000	      1.05072648725160510000	      0.00107828882782585080	      6.03061706801490160000	     -1.64701133281083640000	      0.35792001350707170000	     19.18928765345812700000	     -3.69644397758680960000	     -7.89065267929035400000	    -57.03835333342145500000	      2.42384621740814810000	     -0.01059906582879047000	      0.01210429867838936300	     -5.43724592014732360000	      1.68370826732743480000	      0.88560151338521242000	     -8.28194923263782100000	      5.90837153265221640000	      0.11528315497094445000	      0.02089826520358989800	    -15.82887009859282700000	     -0.39578016823285406000	     -6.59872189340979090000
      1.62900000000000000000	      0.61241758839644056000	      1.05068621052130820000	      0.00102097299757333730	      6.02008320628549760000	     -1.64433555626275640000	      0.36475217755659628000	     19.25705322902426200000	     -3.69870905132377590000	     -7.93070717345580700000	    -56.79044211430017700000	      2.41837288560191420000	     -0.01055432453628717100	      0.01206257667195758700	     -5.51414213039484040000	      1.68811186052077340000	      0.89201104941831166000	     -8.23033397680181440000	      5.93334653858148720000	      0.11584278633517284000	      0.02022185557556500900	    -15.82722003412107800000	     -0.39016749742380319000	     -6.60366995936383550000
